<svg id="ehFbmAeLvYl1" xmlns="http://www.w3.org/2000/svg" xmlns:xlink="http://www.w3.org/1999/xlink" viewBox="0 0 874.03939 771.29199" shape-rendering="geometricPrecision" text-rendering="geometricPrecision"><path d="M673.06187,155.13663c-6.61083-10.93377-14.4444-22.60778-26.71241-26.178-14.20721-4.1345-28.80156,4.07884-41.18094,12.18371-37.021456,24.239038-72.673849,50.507277-106.79381,78.68435l.03733.42443q39.84558-2.74783,79.69107-5.49561c19.19229-1.32353,39.04395-2.82962,56.00462-11.90879c6.436-3.44519,12.70971-8.04728,20.00276-8.368c9.06094-.39838,16.9615,5.92977,23.17024,12.54124c36.72672,39.109,47.3547,98.91591,88.5584,133.27607-25.981793-64.075616-57.004822-125.989553-92.77726-185.1594Z" transform="translate(-162.980301-64.353996)" fill="#f2f2f2"/><path d="M898.81566,486.85161c-4.06138-5.12843-5.72089-6.32951-9.7271-11.50539Q840.15871,412.06265,797.10831,344.504q-29.24146-45.88332-55.58294-93.52878-12.54066-22.65123-24.39375-45.65806-9.19771-17.83888-17.98489-35.89113c-1.67533-3.43742-3.3032-6.89062-4.923-10.35172-3.81675-8.13911-7.56252-16.31772-11.58454-24.34624-4.583-9.15055-10.16194-18.74365-18.57794-24.89148-3.829937-2.912652-8.409813-4.674984-13.2043-5.081-6.851-.44252-13.17267,2.38643-19.115,5.47612-43.520725,22.87859-84.142432,50.890983-120.996,83.43784-36.910007,32.415722-69.901492,69.037727-98.3019,109.11945-.86892,1.24063-2.92353.05532-2.04651-1.19317q5.17993-7.32527,10.56514-14.49239C465.603624,227.732169,520.340104,176.676094,582.6701,136.269q15.72964-10.19362,32.05079-19.43118c5.484-3.1055,10.99188-6.1715,16.59432-9.04781c5.49208-2.821,11.32371-5.35762,17.59789-5.45244c21.35138-.33187,32.40654,23.8484,40.00031,40.11876q3.57965,7.68077,7.24612,15.31419q13.85619,28.98074,28.77923,57.43214q9.20988,17.56629,18.82295,34.9271q29.91689,54.06191,63.59574,105.935c29.74345,45.8082,59.24961,86.27465,93.13353,129.11167.93259,1.18526-.73464,2.87631-1.67532,1.67518Z" transform="translate(-162.980301-64.353996)" fill="#e4e4e4"/><path d="M508.63577,181.72953c-1.24048-1.38286-2.47325-2.76572-3.72184-4.14858-9.84593-10.88906-20.41068-21.65166-33.93138-27.8943-6.446726-3.070525-13.48427-4.701821-20.62445-4.78073-7.3804.02372-14.59488,1.95969-21.41426,4.67014-3.2241,1.288-6.37721,2.7499-9.48247,4.30658-3.54821,1.78587-7.03314,3.6903-10.50187,5.61049q-9.76722,5.405-19.28094,11.28411-18.92963,11.699-36.67357,25.18385-9.1983,6.99336-18.01692,14.445-8.20224,6.92216-16.07266,14.21579c-1.122,1.03517-2.79736-.64006-1.67533-1.67523c1.38286-1.288,2.78154-2.56817,4.18022-3.83248q5.92655-5.35763,12.04292-10.50977q11.15336-9.41136,22.88433-18.09569q18.24205-13.51254,37.74-25.19176q9.74349-5.8317,19.75514-11.17352c2.01525-1.07467,4.054-2.12565,6.11638-3.12132c4.679611-2.360461,9.541933-4.339751,14.5397-5.91863c7.079576-2.290232,14.569942-3.026056,21.95985-2.15725c7.135219,1.037875,14.009728,3.416052,20.261,7.00912c13.2753,7.42,23.57151,18.8938,33.59146,30.091c1.0117,1.13794-.65591,2.82108-1.67531,1.68318Z" transform="translate(-162.980301-64.353996)" fill="#e4e4e4"/><path d="M780.64307,294.56892l31.8111-11.63506L828.2485,277.157c5.14394-1.88143,10.27552-4.02328,15.59314-5.37047c4.621129-1.320006,9.527703-1.257489,14.1137.17983c4.089772,1.513766,7.833413,3.834425,11.00834,6.824c3.243556,2.986934,6.261525,6.209906,9.02916,9.64249c3.43871,4.13257,6.82664,8.30845,10.22975,12.47034q21.068,25.76544,41.86047,51.75453q20.792,25.98867,41.306,52.19814q20.56413,26.27355,40.84541,52.76683q2.48448,3.24552,4.96472,6.4943c.91353,1.1965,2.9734.01691,2.047-1.1965q-20.4309-26.75968-41.14661-53.30032-20.76666-26.60406-41.8203-52.98243-21.05322-26.37786-42.391-52.52695-5.31588-6.51452-10.6493-13.0147c-2.99929-3.65542-5.96477-7.35027-9.25448-10.75258-6.03851-6.2452-13.58286-11.76428-22.61354-11.914-5.30957-.08805-10.44809,1.5968-15.38124,3.38144-5.31814,1.92392-10.62353,3.88384-15.93487,5.82649L788.0213,289.35386l-8.00839,2.9291c-1.42119.51981-.80725,2.81169.6302,2.28594Z" transform="translate(-162.980301-64.353996)" fill="#e4e4e4"/><path d="M466.79629,163.3884c-16.1657-8.30835-36.86813-6.6811-51.72326,3.69893c28.335056,4.888501,56.360076,11.429403,83.93162,19.58923-11.44935-6.70956-20.40548-17.22204-32.20836-23.28816Z" transform="translate(-162.980301-64.353996)" fill="#f2f2f2"/><path d="M414.91391,167.05873l-3.11211,2.52958c1.05268-.88536,2.147-1.71545,3.27123-2.501-.05311-.00914-.10603-.01942-.15912-.02858Z" transform="translate(-162.980301-64.353996)" fill="#f2f2f2"/><path d="M867.76588,294.68515c-3.13141-3.81174-6.517-7.80285-11.20077-9.35109l-4.3729.17247c33.287857,58.820679,78.245549,110.217898,132.11357,151.03689q-58.26994-70.92911-116.5399-141.85827Z" transform="translate(-162.980301-64.353996)" fill="#f2f2f2"/><path d="M667.56528,606.08057c-.117646.000092-.234371-.020743-.34472-.06153l-84.26075-30.95312c-.518319-.190389-.784159-.764911-.59377-1.28323s.764911-.784159,1.28323-.59377L667.91,604.14209c.454905.16716.724445.636476.63959,1.113634s-.499675.824771-.98432.824846Z" transform="translate(-162.980301-64.353996)"/><path d="M513.56528,548.08057c-.117646.000092-.234371-.020743-.34472-.06153l-84.26075-30.95312c-.518319-.190389-.784159-.764911-.59377-1.28323s.764911-.784159,1.28323-.59377L513.91,546.14209c.454905.16716.724445.636476.63959,1.113634s-.499675.824771-.98432.824846Z" transform="translate(-162.980301-64.353996)"/><path d="M356.56528,490.08057c-.117646.000092-.234371-.020743-.34472-.06153l-84.26075-30.95312c-.335294-.12316-.579413-.415842-.6404-.767795s.070423-.709707.34473-.9385.649836-.293865.98513-.170705L356.91,488.14209c.454905.16716.724445.636476.63959,1.113634s-.499675.824771-.98432.824846Z" transform="translate(-162.980301-64.353996)"/><path d="M340.77789,339.73786c-3.513-.78529-7.07046-1.40541-10.5834-1.83746l-.51119-.06323c-23.32139-2.77664-43.00988,6.9576-45.79631,22.64455l-.49522,2.83825c-.30945,1.79507-.643,3.72484-1.03969,5.85964-.192,1.05382.86683,2.13206,2.40721,2.47639L845.64873,497.03693c39.60727,8.56359,79.08714,17.02366,117.33655,25.14363c7.157421,1.617688,14.408195,2.790365,21.71065,3.51129c10.92716.92565,18.92738-.29292,24.46025-3.72527l.00143.00032c6.87669-4.25263,8.60671-11.15675,10.01929-19.07845c2.84589-15.99688,5.87651-32.793,8.8972-49.53834c2.66091-14.75837,5.31588-29.477,7.832-43.57433c1.478-8.36939,2.28148-15.86888-2.87865-22.89126-5.59586-7.59812-17.581-13.49439-35.62262-17.52742-.218-.04872-.43435-.09709-.65537-.1455-56.59242-12.40748-117.61866-2.54964-151.85437,24.53032-3.94237,3.11838-7.734,6.55259-11.40129,9.87461-5.425327,5.145249-11.207024,9.901181-17.302,14.23235-3.365249,2.316686-6.935494,4.320469-10.66605,5.98627-.25666.12475-.54766.25483-.85089.37217-.70477.31777-1.43307.61327-2.13506.86462-4.086654,1.575935-8.328703,2.714684-12.65519,3.3972l-.43142.06466c-.32638.05613-.67791.1067-1.027.14668-2.480182.33329-4.976827.52983-7.47861.58873-10.81181.309-22.58524-1.66945-34.9912-5.88162-11.448691-3.93221-22.385761-9.220158-32.578-15.75109-10.81449-6.91445-20.63934-14.71742-30.14091-22.263-4.17337-3.3155-8.49029-6.74313-12.82831-10.0464-.81538-.62156-1.61781-1.23022-2.43389-1.84194-5.31267-3.96943-10.17724-7.35432-14.87117-10.34795-11.523074-7.388113-24.026099-13.122305-37.14319-17.03477-13.864-4.02977-26.62952-5.1282-37.93113-3.27465-3.138962.51273-6.232728,1.271588-9.25267,2.26955-13.92282,4.59682-23.91659,13.74043-33.58051,22.58341-12.02134,10.99884-24.45259,22.37336-44.6111,25.204-23.26268,3.2735-53.83561-7.08109-74.69257-17.86551-6.55734-3.3911-13.04452-7.05565-19.31837-10.60059q-3.80063-2.148-7.611-4.28006c-4.99335-2.78532-9.09853-4.9819-12.9185-6.91547l-1.20763-.61418c-.67265-.33749-1.346-.67514-2.03422-1.0071-4.55048-2.238-8.82522-4.15423-13.07549-5.85984l-1.00447-.40866c-2.02137-.78508-3.91848-1.48634-5.78838-2.13749l-.74665-.259c-3.74276-1.272001-7.551806-2.339902-11.41033-3.19899Z" transform="translate(-162.980301-64.353996)" fill="#f2f2f2"/><path d="M1009.9813,528.062c-.06973.000033-.139275-.007166-.20752-.02148l-740-156.208c-.5374-.116851-.879612-.645694-.766028-1.183794s.640338-.883519,1.179118-.773206l740,156.208c.50103.10558.841363.572564.788447,1.081855s-.481984.896333-.994017.896655Z" transform="translate(-162.980301-64.353996)"/><circle r="51" transform="translate(693.5 51)" fill="#ffd565"/><path d="M948.51573,76.22439c-24.7168-3.341-52.93512,10.01867-59.34131,34.12353-3.312681-8.79416-11.931911-14.436736-21.316961-13.955143s-17.381431,6.976799-19.776539,16.063853l2.82971,2.02667c52.967474,11.454269,107.797075,11.206371,160.65881-.72638-17.19287-18.06892-38.33685-34.19165-63.05371-37.53253Z" transform="translate(-162.980301-64.353996)" fill="#f0f0f0"/><path d="M842.51573,144.22439c-24.7168-3.34095-52.93512,10.01867-59.34131,34.12353-3.312681-8.79416-11.931911-14.436736-21.316961-13.955143s-17.381431,6.976799-19.776539,16.063853l2.82971,2.02667c52.967474,11.454269,107.797075,11.206371,160.65881-.72638-17.19287-18.06892-38.33685-34.19165-63.05371-37.53253Z" transform="translate(-162.980301-64.353996)" fill="#f0f0f0"/><path d="M886.872,553.437c-2.03728-2.047647-3.062933-4.892517-2.800972-7.769103s1.784627-5.489389,4.158272-7.135347L872.68919,461.346l17.16108,5.50989l12.43908,74.65875c2.556829,4.264438,1.520077,9.767269-2.413248,12.80894s-9.519998,2.660789-13.004102-.88658Z" transform="translate(-162.980301-64.353996)" fill="#9e616a"/><path d="M863.92625,390.1305l10.64765-8.03739c0,0,9.39288-.66516,11.05646,16.27378s5.0794,49.95013,5.0794,49.95013l16.293,75.46286-22.55395,4.95047-17.451-81.43777-10.46887-24.184Z" transform="translate(-162.980301-64.353996)" fill="#2f2e41"/><polygon points="718.5,449 658.5,448 653.5,407 718.5,407 718.5,449" fill="#9e616a"/><polygon points="663.032,699.832 649.181,699.831 642.591,646.404 663.034,646.405 663.032,699.832" fill="#9e616a"/><polygon points="751.276,680.645 737.425,680.548 731.21,627.076 749.225,631.209 751.276,680.645" fill="#9e616a"/><polygon points="707.954,371.691 711.092,379.851 710.465,388.011 649.04,409.286 652.088,373.574 658.993,365.414 707.954,371.691" fill="#ffb6b6"/><circle r="21.9384" transform="translate(681.603 276.32)" fill="#9e616a"/><path d="M832.20836,790.48614h-9.82871l-1.75438-9.27947-4.49323,9.27947h-26.06804c-2.564685.000147-4.831471-1.667519-5.594708-4.116004s.15444-5.108805,2.264938-6.565996l20.8172-14.37711v-9.38123l21.89607,1.3069Z" transform="translate(-162.980301-64.353996)" fill="#2f2e41"/><path d="M921.52345,771.35138l-9.82847-.0688-1.68938-9.29152-4.55808,9.24779-26.06745-.18247c-2.564596-.017833-4.819619-1.701316-5.565693-4.155056s.190169-5.107547,2.310773-6.549944l20.91733-14.231.06567-9.381l21.88638,1.46013Z" transform="translate(-162.980301-64.353996)" fill="#2f2e41"/><path d="M918.56637,706.97349l-10.086-61.61949-12-85c8.78784-16.32031-11-67-11-67l-2.79323.134-63.22044,11.92684.01362-.06084c-12.93066,35.26813-17.21474,52.69133-16.50612,90.24846l2.54743,135.00989h-.79914c-2.761424,0-5,2.238576-5,5s2.238576,5,5,5h25c2.761424,0,5-2.238576,5-5s-2.238576-5-5-5h-.64459l22.947-160.75659L871.48032,637.354l22,69c-8-2-6.75783,2.634-6.75783,5.25835c0,2.761424,2.238576,5,5,5h25c2.398639.002502,4.460374-1.700406,4.911053-4.056327s-.836967-4.699553-3.067173-5.582533Z" transform="translate(-162.980301-64.353996)" fill="#2f2e41"/><path d="M890.40291,495.97917l-2.00006-20c-.426099-1.673804-1.881543-2.882863-3.6051-2.99481-.83331-9.52728-4.33935-50.62872-4.54883-52.42127l-.00818-.0758-1.5943-34.05774c-.119865-2.560893-2.144274-4.623116-4.70251-4.79035l-8.42078-.55041c-.240104-.008098-.430569-.205069-.4306-.44531.000011-1.878102-.746054-3.679286-2.074067-5.007311s-3.129191-2.074104-5.007293-2.074109h-24.93119c-3.341166.001363-6.159275,2.488705-6.57562,5.80383-.022942.228789-.218123.401368-.448.39612l-.003-.00006c-5.854177-.120617-10.917986,4.054508-11.91547,9.82434-3.40839,19.831-10.23907,64.83984-6.86188,89.86218c1.17566,8.71069-1.3587,1.81158-1.80328,9.09979-.089144,1.422475.391418,2.821955,1.33563,3.88959-2.058.598-2.85618,2.82131-2.32811,4.91615l-.43818-.10847c.54001,2.142098,2.714274,3.440859,4.85638,2.90088L885.502,480.83555c2.14212-.53997,5.44089,17.28571,4.90091,15.14362Z" transform="translate(-162.980301-64.353996)" fill="#2f2e41"/><path d="M806.08865,553.437c2.037294-2.04764,3.062956-4.892515,2.800994-7.769105s-1.784637-5.489396-4.158294-7.135345l15.5401-77.18656-17.16107,5.50989-12.43909,74.65875c-2.556867,4.264442-1.520126,9.767306,2.413216,12.808991s9.520046,2.660785,13.004144-.886621Z" transform="translate(-162.980301-64.353996)" fill="#9e616a"/><path d="M829.03439,390.1305l-10.64764-8.03739c0,0-9.39289-.66516-11.05646,16.27378s-5.07941,49.95013-5.07941,49.95013l-16.293,75.46286l22.554,4.95047l17.451-81.43777l10.46887-24.184Z" transform="translate(-162.980301-64.353996)" fill="#2f2e41"/><path d="M868.07564,321.1661c4.08708,1.21668,7.89992-2.202,10.74458-5.44087l-1.011,1.19957c6.69181,4.71255,10.69317,12.38968,13.28938,20.1611c2.59621,7.76284,4.04419,15.89416,6.97458,23.54562c2.93033,7.64287,7.66,15.03729,14.90022,18.85017c9.69922,5.10665,21.5834,2.78469,31.89962-.89971.13707-.0514.26561-.09424.40268-.14564-4.178242-7.804681-6.73704-16.372884-7.52291-25.19066c4.243814,8.28531,10.364187,15.464857,17.87339,20.96651c6.740717-3.064135,13.222349-6.668869,19.3814-10.77889c3.98426-2.66471,8.18268-6.10917,8.6454-10.88165.47124-4.73827-3.06745-9.06523-7.24019-11.34442s-8.971-3.0503-13.52927-4.4212c-4.5498-1.36238-9.19378-3.59868-11.58431-7.71144-5.50938-9.45934,3.76148-22.80013-2.15064-32.01959-2.91323-4.53264-8.56826-6.34911-13.812-7.60862-8.003834-1.914445-16.127931-3.285631-24.31673-4.10418-7.18879-.71975-14.61746-.98537-21.45491,1.32807s-13.04092,7.68571-14.50606,14.7631c-3.99284,2.09924-8.217,4.42125-10.35905,8.40547-2.14214,3.97568-.95114,10.04203,3.37582,11.32726Z" transform="translate(-162.980301-64.353996)" fill="#2f2e41"/><path d="M874.17675,319.57214c3.91362,4.90263,6.044,10.20454,6.044,13.37969c8.1301,14.8592-3.49609,27.62261-18.3556,35.75253-5.926708,3.259699-12.770222,4.452782-19.45034,3.39093l-.62168-2.65376-.84227,2.39048c0,0-9.67458,31.95357-12.86574,33.828c1.211-5.68666,2.59808-32.01668,3.27221-37.56651.93328-7.55361-2.3201-18.799-4.66693-25.63764-1.455153-4.214712-2.201952-8.641396-2.21006-13.10023v-.19495l-2.28513,7.34-8.31933-3.54892c1.54776-8.87756,0-18.95567,18.55562-18.08159c10.03575-6.90205,18.87341-7.95341,26.133-5.99583.93688-1.44845,6.33924,1.26445,7.90037.50176" transform="translate(-162.980301-64.353996)" fill="#2f2e41"/><path d="M894.95,475.58c-.725869,6.475473-5.76263,11.627643-12.22,12.5l-45.17,6.12c-7.777245,1.045726-14.932198-4.404388-15.99-12.18l-6.51-48.14c-.423866-3.129716.209645-6.311346,1.8-9.04l-.31-2.34c-2.614367-.952211-4.485461-3.275153-4.858962-6.032348s.812148-5.494215,3.078962-7.107652l5.58-25.85c-.151164-1.119702.177443-2.251184.904874-3.115723s1.786066-1.381768,2.915126-1.424277c2.101968-.023053,3.88311,1.542455,4.13,3.63l.51,3.8c1.414,10.422032,10.658187,17.968382,21.152315,17.267368s18.652459-9.409863,18.667685-19.927368c-.000529-.906302-.060659-1.811589-.18-2.71l-.5-3.74c-.338057-2.156286,1.051719-4.205986,3.18-4.69c1.079516-.205076,2.195853.043106,3.086795.686248s1.477973,1.62457,1.623205,2.713752l3.23,23.8c3.669643-.253063,6.980242,2.1952,7.813166,5.778015s-1.058211,7.240364-4.463166,8.631985c3.269043,2.264662,5.435509,5.799231,5.97,9.74l6.52,48.15c.15802,1.153821.171457,2.322851.04,3.48Z" transform="translate(-162.980301-64.353996)" fill="#470054"/><path d="M815.90592,423.55866c-.110158-.820694.464829-1.575672,1.28528-1.68762l61.56637-9.43744c.531057-.071871,1.060118.145033,1.387888.569007s.404457.990605.20117,1.48645-.655661.845572-1.186718.917443l-61.56637,9.43744c-.820694.110158-1.575672-.464829-1.68762-1.28528Z" transform="translate(-162.980301-64.353996)" fill="#3f3d56"/><path d="M823.10114,448.82906l-2.03494-15.03627c-.326869-2.415387,1.366188-4.638433,3.78157-4.96534l58.80132-7.52189c2.415403-.326888,4.638478,1.366163,4.96541,3.78156l2.03494,15.03627c.326862,2.415408-1.366225,4.638462-3.78163,4.96535L863.38108,448.32c.048251.160552.087314.323723.117.48872l2.07876,15.36l19.81932-2.68226c.354357-.048568.707672.095819.926592.378664s.270107.661077.134241.991937-.438094.563963-.792613.611329l-19.81932,2.68227-8.91869,1.207-18.82837,2.54813c-.546907.073327-1.049848-.3102-1.123853-.857016s.308899-1.050232.855623-1.124914l18.82835-2.54816-2.07875-15.36c-.015233-.166953-.020942-.334638-.0171-.50224l-26.49582,3.09714c-2.415361.326834-4.638372-1.366193-4.96531-3.78154Z" transform="translate(-162.980301-64.353996)" fill="#3f3d56"/><path d="M591.97983,835.646c-.247094.00019-.485465-.091333-.66894-.25684l-428-385.792c-.409373-.369959-.441827-1.001549-.07253-1.411519s1.000833-.443445,1.4114-.074811l428,385.792c.307798.277122.412914.715305.264337,1.101907s-.520098.641606-.934267.641263Z" transform="translate(-162.980301-64.353996)"/><path d="M816.03,445.94c.042678-.584023-.169371-1.157954-.581517-1.573934s-.98409-.633335-1.568483-.596066c-.107622.004062-.21469.017445-.32.04l-12.66,2.86c-.57205.138755-1.05878.512883-1.34,1.03-.185661.006982-.370043.033801-.55.08-1.071797.242941-1.932571,1.039224-2.258076,2.088897s-.066291,2.193267.68,3s1.866279,1.154044,2.938076.911103c.452892-.105065.876561-.310066,1.24-.6l4.29,12.08c.44014.777545,1.339751,1.172396,2.21.97l8.23-1.86c.862596-.202064,1.496633-.937092,1.56994-1.82Zm-15.85,6.98c-1.184651.27062-2.36438-.470349-2.635-1.655s.470349-2.36438,1.655-2.635c.04-.01.08,0,.12-.01-.003039.36438.090094.723115.27,1.04l1.57,2.74c-.273301.259227-.612124.43901-.98.52Z" transform="translate(-162.980301-64.353996)" fill="#ccc"/><path d="M813.88,443.77c.12,1.6-2.62,3.44-6.29,4.17-3.37006.69-6.39.21-7.24-1.05.170839-.101364.356383-.175582.55-.22l12.66-2.86c.10531-.022555.212378-.035938.32-.04Z" transform="translate(-162.980301-64.353996)" fill="#e6e6e6"/><path d="M807.26359,475.72409l-3.67522-7.6463c-2.153-4.47933,1.78872-9.24544,8.78746-10.62368L821,456l3.60748,25.20178-.74661.147c-6.99874,1.37828-14.44429-1.14537-16.59728-5.62469Z" transform="translate(-162.980301-64.353996)" fill="#2c74bc"/><g opacity="0.2"><path d="M894.95,475.58c-.725869,6.475473-5.76263,11.627643-12.22,12.5l-45.17,6.12c-5.478635.740799-10.889505-1.763728-13.87-6.42c2.573793-3.112098,6.327991-5.01094,10.36-5.24c3.88-.2,7.64,1.09,11.44,1.81c9.188222,1.731479,18.692752.155066,26.83-4.45c3.53-2.05,6.71-4.67,10.59-6.13c3.88-1.45,8.89-1.4,11.7,1.43.121236.119368.234796.246288.34.38Z" transform="translate(-162.980301-64.353996)"/></g></svg>
