<svg id="elTxKXzcNPA1" xmlns="http://www.w3.org/2000/svg" xmlns:xlink="http://www.w3.org/1999/xlink" viewBox="0 0 1074.392 584.231" shape-rendering="geometricPrecision" text-rendering="geometricPrecision"><ellipse rx="527.5" ry="34.9216" transform="translate(540.643 549.309)" fill="#f2f2f2"/><path d="M583.47969,324.89424c-85.94407,0-147.651,55.13938-147.651,183.79791c0,145.813,61.70691,184.41057,147.651,184.41057s151.327-42.27352,151.327-184.41057c-.00005-151.9396-65.38293-183.79791-151.327-183.79791Zm.56495,319.80837c-59.52686,0-90.62592-34.92288-90.62592-135.9163c0-89.11185,32.37209-136.10461,91.899-136.10461s91.899,30.86774,91.899,136.10461c-.00009,98.44736-33.64522,135.9163-93.17208,135.9163Z" transform="translate(-63.054001-157.884506)" fill="#2f2e41"/><path d="M384.36531,591.40121h-35.53431v-104.63938c-.000011-11.573581-9.382249-20.955819-20.95583-20.95583h-8.32638c-5.557839-.000003-10.888044,2.207838-14.81803,6.137823s-6.13783,9.260188-6.13783,14.818027v104.63936h-100.23008c-4.193974.000005-8.081693-2.196196-10.246458-5.7883s-2.290418-8.055497-.331172-11.7637l106.0824-200.78034c2.672579-5.058374,3.1609-10.989498,1.351633-16.416871s-5.758809-9.879092-10.932013-12.321999l-6.26231-2.9572c-10.099237-4.769084-22.164046-.779613-27.4293,9.07005L121.21416,592.4754c-2.203188,4.121475-3.35584,8.722728-3.35584,13.39612v0c0,7.536348,2.993803,14.764027,8.322807,20.09303s12.556685,8.322803,20.093033,8.3228h152.31877v66.16727c0,6.661973,2.646458,13.051089,7.357185,17.761815s11.099842,7.357185,17.761815,7.357185h.00005c6.661973,0,13.051089-2.646458,17.761815-7.357185s7.357185-11.099842,7.357185-17.761815v-66.16723h35.53428c5.687056,0,11.141185-2.259174,15.16254-6.28053s6.28053-9.475484,6.28053-15.16254v0c.000022-11.842677-9.600343-21.443082-21.44302-21.44311Z" transform="translate(-63.054001-157.884506)" fill="#470054"/><path d="M1042.36183,591.40121h-35.53428v-104.63938c-.000011-11.573592-9.382268-20.955836-20.95586-20.95583h-8.32638c-5.557839-.000003-10.888044,2.207838-14.81803,6.137823s-6.13783,9.260188-6.13783,14.818027v104.63936h-100.23008c-4.193976.000011-8.0817-2.196189-10.246466-5.788295s-2.290416-8.055502-.331164-11.763705l106.08239-200.7803c2.67259-5.058377,3.160918-10.989509,1.351652-16.416891s-5.758811-9.879109-10.932022-12.322019l-6.26231-2.9572c-10.09924-4.769085-22.164052-.779614-27.42931,9.07005L779.21068,592.4754c-2.203188,4.121475-3.35584,8.722728-3.35584,13.39612v0c0,7.536347,2.993802,14.764024,8.322804,20.093026s12.556679,8.322804,20.093026,8.322804h152.31878v66.16727c0,6.661973,2.646458,13.051089,7.357185,17.761815s11.099842,7.357185,17.761815,7.357185v0c6.661973,0,13.051089-2.646458,17.761815-7.357185s7.357185-11.099842,7.357185-17.761815v-66.16723h35.53428c5.687056,0,11.141185-2.259174,15.16254-6.28053s6.28053-9.475484,6.28053-15.16254v0c.000022-11.842657-9.600313-21.443055-21.44297-21.44311Z" transform="translate(-63.054001-157.884506)" fill="#470054"/><path d="M394.16787,579.148h-35.53429v-104.63936c.000003-5.557839-2.207838-10.888044-6.137823-14.81803s-9.260188-6.13783-14.818027-6.13783h-8.32638c-5.55784,0-10.888045,2.207843-14.818031,6.137829s-6.137829,9.260191-6.137829,14.818031v104.63936h-100.23008c-4.193974.000005-8.081693-2.196196-10.246458-5.7883s-2.290418-8.055497-.331172-11.7637L303.67017,360.81572c2.672597-5.058379,3.160928-10.989516,1.351662-16.416903s-5.758816-9.879117-10.932032-12.322027l-6.26231-2.9572c-10.099227-4.769093-22.164034-.779645-27.42931,9.07L131.01672,580.2222c-2.203188,4.121478-3.35584,8.722735-3.35584,13.39613v0c0,7.536347,2.993802,14.764024,8.322804,20.093026s12.556679,8.322804,20.093026,8.322804h152.31878v66.16727c0,6.661973,2.646458,13.051089,7.357185,17.761815s11.099842,7.357185,17.761815,7.357185h.00005c6.661973,0,13.051089-2.646458,17.761815-7.357185s7.357185-11.099842,7.357185-17.761815v-66.16723h35.53429c5.687056,0,11.141185-2.259174,15.16254-6.28053s6.28053-9.475484,6.28053-15.16254v0c.000016-5.687059-2.259146-11.141197-6.280494-15.162565s-9.475477-6.280554-15.162536-6.280565Z" transform="translate(-63.054001-157.884506)" fill="none" stroke="#3f3d56" stroke-miterlimit="10"/><path d="M1060.74162,579.148h-35.53428v-104.63936c0-5.55784-2.207843-10.888045-6.137829-14.818031s-9.260191-6.137829-14.818031-6.137829h-8.32638c-5.55784,0-10.888045,2.207843-14.818031,6.137829s-6.137829,9.260191-6.137829,14.818031v104.63936h-100.23008c-4.193974.000005-8.081693-2.196196-10.246458-5.7883s-2.290418-8.055497-.331172-11.7637L970.24392,360.81572c2.672597-5.058379,3.160928-10.989516,1.351662-16.416903s-5.758816-9.879117-10.932032-12.322027l-6.26231-2.9572c-10.099227-4.769093-22.164034-.779645-27.42931,9.07L797.59047,580.2222c-2.203188,4.121478-3.35584,8.722735-3.35584,13.39613v0c0,7.536347,2.993802,14.764024,8.322804,20.093026s12.556679,8.322804,20.093026,8.322804h152.31878v66.16727c0,6.661973,2.646458,13.051089,7.357185,17.761815s11.099842,7.357185,17.761815,7.357185v0c13.872841,0,25.119-11.246159,25.119-25.119v-66.16723h35.53428c5.687056,0,11.141185-2.259174,15.16254-6.28053s6.28053-9.475484,6.28053-15.16254v0c.000033-11.842665-9.600305-21.443075-21.44297-21.44313Z" transform="translate(-63.054001-157.884506)" fill="none" stroke="#3f3d56" stroke-miterlimit="10"/><path d="M603.0848,313.86637c-85.94407,0-147.651,55.13937-147.651,183.79791c0,145.813,61.70691,184.41057,147.651,184.41057s151.327-42.27352,151.327-184.41057c-.00005-151.93961-65.38293-183.79791-151.327-183.79791Zm.565,319.80836c-59.52686,0-90.62592-34.92287-90.62592-135.91629c0-89.11185,32.37209-136.10461,91.899-136.10461s91.899,30.86774,91.899,136.10461c-.00014,98.44735-33.64527,135.91629-93.17213,135.91629Z" transform="translate(-63.054001-157.884506)" fill="none" stroke="#3f3d56" stroke-miterlimit="10"/><circle r="12.9012" transform="translate(471.141 18.2504)" fill="#2f2e41"/><ellipse rx="36.1862" ry="46.8848" transform="translate(502.607 46.8848)" fill="#2f2e41"/><path d="M565.66136,237.49419c-18.1276,0-33.1413-17.27052-35.77576-39.80484-.274058,2.350008-.41111,4.713975-.41046,7.07991c0,25.89373,16.20114,46.88476,36.18622,46.88476s36.18623-20.991,36.18623-46.88476c.00065-2.365935-.136402-4.729902-.41046-7.07991-2.63446,22.53432-17.64813,39.80484-35.77577,39.80484Z" transform="translate(-63.054001-157.884506)" opacity="0.1"/><path d="M639.29619,342.07326c-.77711,3.19345-4.12792,5.751-7.83881,7.53791-7.80188,3.75682-17.4253,4.87788-26.7597,5.25418-2.38125.144711-4.770221.100573-7.1445-.132-4.600887-.445013-8.917114-2.429128-12.25052-5.63141-.483697-.315257-.771739-.856705-.762866-1.434001s.313419-1.109636.806576-1.409879c4.9694-5.45888,13.2622-8.80605,21.61613-11.21609c6.3344-1.82743,17.3813-6.56089,24.29013-5.9221c6.69181.61877,9.02477,8.92125,8.04356,12.95339Z" transform="translate(-63.054001-157.884506)" fill="#3f3d56"/><path d="M639.29619,342.07326c-.77711,3.19345-4.12792,5.751-7.83881,7.53791-7.80188,3.75682-17.4253,4.87788-26.7597,5.25418-2.38125.144711-4.770221.100573-7.1445-.132-4.600887-.445013-8.917114-2.429128-12.25052-5.63141-.483697-.315257-.771739-.856705-.762866-1.434001s.313419-1.109636.806576-1.409879c4.9694-5.45888,13.2622-8.80605,21.61613-11.21609c6.3344-1.82743,17.3813-6.56089,24.29013-5.9221c6.69181.61877,9.02477,8.92125,8.04356,12.95339Z" transform="translate(-63.054001-157.884506)" opacity="0.1"/><path d="M540.09786,318.2059c-2.38157,4.667492-2.812715,10.089551-1.1987,15.07476c1.641609,4.947524,4.714362,9.296688,8.82921,12.49683c10.09467,8.09163,23.98784,9.20512,36.92477,9.09278c11.337946-.098652,22.659869-.874648,33.90525-2.32384c3.768372-.333955,7.471446-1.193772,11.00143-2.55442c4.22242-1.82679,7.93282-5.17756,9.436-9.5257s.43625-9.67246-3.13383-12.57428c-3.13686-2.54969-7.46265-2.9004-11.49775-3.14289l-23.08764-1.38745c2.281-2.30839,5.31816-3.614,8.09586-5.29216c3.68523-2.22642,6.13358-5.96455,8.81312-9.33471c4.128711-4.934341,8.62078-9.552896,13.4386-13.817.75138,4.31038,3.4782,7.8499,6.68733,10.824s6.90841,5.36845,10.2439,8.20013c8.0786,6.85838,13.89583,16.1669,22.39215,22.50043c5.844694-1.535785,11.308645-4.263638,16.04862-8.0122l-3.30209-5.98141c-.275157-.615576-.70369-1.150237-1.24459-1.55282-.93465-.575-2.13975-.27872-3.225-.44144-2.90082-.435-4.16771-3.784-5.306-6.48737-3.12491-7.42173-9.108-13.17993-14.21783-19.40381-3.77149-4.594344-7.117201-9.522266-9.99577-14.72284-1.71652-3.10162-3.288-6.33107-5.61746-9.00321s-5.59358-4.773-9.1385-4.78051c-3.13222-.00662-6.02122,1.58355-8.71422,3.18308-8.202329,4.872076-16.094239,10.248733-23.63018,16.09894-3.94376,3.0617-7.86306,6.29645-12.48933,8.17393-1.94748.79035-4.00044,1.33052-5.86924,2.29223-3.27313,1.6844-5.75721,4.53435-8.43128,7.06415-9.53757,9.02315-22.59569,14.86931-35.71683,15.3368Z" transform="translate(-63.054001-157.884506)" fill="#b2d2ee"/><path d="M588.3737,253.98251c-.107213,2.758127-.693906,5.476516-1.73379,8.03335-1.065463,2.577795-3.154813,4.596495-5.76772,5.57269-1.835484.491736-3.759555.55418-5.62306.18249-1.624965-.169721-3.19086-.70315-4.58151-1.56071-2.16484-1.48837-3.24415-4.14413-3.63748-6.74325-.39333-2.596-.21714-5.24857-.46885-7.86342-.245255-2.112044-.647027-4.202958-1.202-6.25549-.16993-.68282-.343-1.36248-.51294-2.04216-.16674-.67967-.33037-1.35935-.48141-2.039-.13847-.63878-.26745-1.28068-.37761-1.92574-.09123-.54436-.173-1.09189-.23285-1.64255-.055085-1.632484-.327025-3.250393-.80867-4.81118-.452073-1.012253-1.017913-1.969751-1.68659-2.854-.28635-.40906-.56326-.81811-.81815-1.24292-.737143-1.103954-1.07975-2.42455-.97226-3.74763.030275-.20454.079788-.405765.14788-.601.02516-.07552.05347-.151.085-.2234.574709-.156032,1.035207-.585943,1.23031-1.14859.108215-.595288.057199-1.208602-.14788-1.77783-.235125-.7954-.556971-1.562543-.95974-2.28761-.2643-.47829-1.16108-1.34046-1.16738-1.888-.0126-1.10132,2.13972-1.98867,3.01134-2.42291c2.660533-1.332262,5.627223-1.933854,8.59657-1.74323c1.90369.129,3.9679.71428,5.0189,2.30962.944,1.438.81807,3.30081,1.22085,4.97169.042415.242867.145205.471174.29892.66393.205354.187121.463743.305861.73948.33982.466143.092734.943938.111853,1.416.05666h.00315c.124775-.009892.248789-.027765.37128-.05351.735096-.135627,1.429999-.435746,2.03271-.8779q.58531-.15576,1.18-.25488c.016017-.001628.031839-.004793.04725-.00945c1.57646,4.97482,1.781,10.30836,3.07111,15.37444.63874,2.52044,1.55442,5.00943,1.6834,7.60225.00945.11327.0126.2297.01575.34612.0189.83386-.04717,1.674-.0126,2.50472.012043.374075.054148.746575.12591,1.1139.14109.590811.316541,1.172884.52546,1.74325l.00945.02831c.05977.18251.11643.36817.16363.55381.03457.1353.06607.26747.09127.40277l.00311.00943c.23295,1.390447.267883,2.80687.10376,4.20711Z" transform="translate(-63.054001-157.884506)" fill="#fbbebe"/><circle r="18.5651" transform="translate(503.237 44.9968)" fill="#fbbebe"/><path d="M684.15711,304.03278c-.538102-5.06504-2.338394-9.914129-5.236-14.10317q.72216,4.29513,1.44748,8.58714c-1.228303.355402-2.550442-.051122-3.36688-1.03523-.781735-.976108-1.379854-2.085971-1.76529-3.27565-2.109255-5.235993-4.867308-10.186568-8.2095-14.73567-11.81876-.98489-23.50223-5.88418-33.89555-11.59532-10.39643-5.708-20.12582-12.5519-30.38382-18.50217-1.77823-1.074991-3.631079-2.021406-5.54436-2.832-3.20954-1.287-6.81242-1.95406-9.85526-3.46759-.2045-.1007-.409-.20767-.61043-.31781-.687403-.373847-1.338422-.811022-1.94459-1.30584-.327634-.266032-.638679-.551866-.93139-.8559-1.51821-1.766207-2.721976-3.779917-3.55886-5.95341-1.63308-3.61232-2.21524-7.97041-3.84517-11.58274.74914-.700124,1.590852-1.294086,2.50156-1.76525h.00315c.13213-.06924.2643-.13532.39962-.19824.644899-.303731,1.315701-.549101,2.00437-.73317q.58531-.15576,1.18-.25488c.016017-.001628.031839-.004793.04725-.00945c1.838546-.29955,3.722244-.150579,5.49085.43424c2.58652.87477,4.76711,2.62115,6.94148,4.27313c3.532407,2.488574,6.920496,5.175935,10.14787,8.04908c1.79357,1.718,3.4298,3.606,5.35868,5.16676c1.602852,1.23707,3.292769,2.357024,5.05662,3.35116q15.65613,9.32658,31.31525,18.65005c3.53365,2.1051,7.07046,4.21019,10.52553,6.438c5.24855,3.38578,10.30828,7.05474,15.36493,10.72057q4.46978,3.23787,8.93647,6.47889c.977045.623253,1.83486,1.41608,2.533,2.3411.616877,1.050278,1.000041,2.22122,1.12337,3.433.747471,4.895703.325857,9.898801-1.23038,14.60037Z" transform="translate(-63.054001-157.884506)" fill="#fbbebe"/><path d="M592.97726,267.9441c-1.25235,5.61674-6.92888,9.012-9.89617,13.94586-3.68784,6.12335-2.18378,13.241-.79922,20.25484q-3.79485,3.27095-7.59285,6.54186c-1.39708,1.19886-2.79417,2.404-4.29827,3.46444-2.193155,1.469503-4.485159,2.78582-6.85966,3.93956q-3.3606,1.72752-6.72119,3.45814c-2.082711,1.171082-4.289561,2.106174-6.57961,2.78793-4.41473,1.13278-9.10318.33982-13.4707-.97232-.515051-.135067-1.010156-.337125-1.47264-.601-.272458-.162455-.509905-.377447-.69854-.63248-.430626-.771976-.587009-1.667072-.44365-2.53933.44365-7.35052,2.24036-14.54686,4.03081-21.68971.957009-4.285197,2.243609-8.490066,3.84832-12.57708c1.574005-3.501987,3.383267-6.893406,5.41538-10.151c2.242801-4.09871,4.899848-7.956718,7.92948-11.51353c1.474938-1.368953,2.716366-2.969634,3.67525-4.73882c1.11706-2.54876.686-5.472.91252-8.24732.17335-2.085164.726841-4.121,1.63312-6.0069v-.00315c.484755-1.015824,1.068659-1.981284,1.74321-2.88232q.45788,1.06671.91568,2.13027.30209.69855.59783,1.394.38706.89679.7678,1.78728q1.09973,2.55823,2.19637,5.11327c.790054,2.145439,1.915874,4.151768,3.33538,5.944c1.319982,1.866864,3.523822,2.902823,5.803513,2.728055s4.299866-1.534552,5.319857-3.580805c1.05766-1.877677,1.823696-3.905245,2.27185-6.0132.621418-2.566651.707118-5.233841.25175-7.83509-.75835-5.00945-2.88862-10.12585-4.43678-14.77972-.630145-1.551724-.994984-3.19833-1.07927-4.871.003131-.187961.022071-.375325.05662-.56011.00945-.04719.0189-.09754.02834-.14473.644899-.303731,1.315701-.549101,2.00437-.73317q.58531-.15576,1.18-.25488q2.04378,11.06355,4.09377,22.12709c.0315.17307.0661.34613.09756.52234.19509,1.05726.39333,2.11454.61358,3.16865.19828.95657.41223,1.91.65137,2.85715l.00945.02831c.08182.321.16678.63877.2549.95658l.00311.00943c.2423.86848.5129,1.73065.81811,2.58024c1.85024,5.11955,5.07554,10.27373,3.88925,15.58837Z" transform="translate(-63.054001-157.884506)" fill="#470054"/><path d="M668.32144,346.87707c-.058473,1.081996.151058,2.161696.61,3.14328c1.16192,2.12353,3.94981,2.60625,6.36228,2.80484c14.092246,1.158369,28.270113.726401,42.2657-1.28774.759336-.051941,1.496035-.28057,2.15136-.66766c1.98985-1.39509.76329-4.7951-1.40951-5.88355s-4.75126-.82614-7.1353-1.29748c-2.368537-.596191-4.62408-1.574402-6.67794-2.89617q-7.25234-4.16669-14.293-8.68808c-2.79453-1.79464-6.09272-3.70993-9.23987-2.64587-8.52516,2.884-12.68983,8.22201-12.63372,17.41843Z" transform="translate(-63.054001-157.884506)" fill="#3f3d56"/><path d="M564.43732,240.87367v.00315c-.022.13215-.04406.26116-.07237.39018-.0346.214-.07551.43108-.11642.645-.39018,1.99812-.86847,3.98678-1.41913,5.96287-1.5104,5.45939-3.53366,10.83069-5.54121,16.12332q-8.08055,21.28692-16.16423,42.577c-1.35936,3.57457-2.71554,7.15228-4.26054,10.65448-.516,1.16741-1.04782,2.34424-1.57647,3.53368-1.89427,4.25737-3.713,8.65322-4.31716,13.18436-.563283,2.982094-.628143,6.036956-.19194,9.04027.60416,2.97042,2.40718,5.8716,5.22969,6.96977c1.37823.53808,3.35113,1.25865,2.97355,2.69037-.2045.78665-1.09817,1.17055-1.90057,1.3027-2.145129.341889-4.33122-.28763-5.966-1.718-1.50725-1.33732-2.66518-3.41725-4.66959-3.64065-1.38767-.151-2.66518.67966-3.93643,1.26178-5.18564,2.36942-11.22719.71114-16.674-.9723.42794-2.20579,2.64318-3.65953,4.84267-4.10006c2.19949-.44367,4.47449-.129,6.718-.18879.718493.038314,1.4314-.145132,2.04216-.52549.547507-.50259.931228-1.158207,1.10132-1.88169c1.445159-4.282188,2.520016-8.680541,3.21273-13.14661.7237-4.66645,1.02581-9.40527,2.05787-14.01507.80241-3.59661,2.0422-7.07991,3.10572-10.61044c2.056672-7.269171,3.745417-14.637443,5.0598-22.07674.664489-3.09074,1.14051-6.219011,1.42543-9.36751.17935-2.6117.09438-5.236.34609-7.83826.422477-3.385547,1.128767-6.729594,2.11141-9.99683q1.44427-5.34769,2.88547-10.68911c1.42544-5.2706,2.95465-10.74572,6.567-14.84264c2.536032-2.915325,6.166862-4.649269,10.02834-4.78915.716316-.000872,1.430604.076144,2.13027.22969.11639.02831.23285.05664.34923.0881.762464.199347,1.494047.502142,2.17437.89995c1.11388-.708,1.68025-.45942,2.41974.63246.648253,1.155556.953872,2.471883.88107,3.79485.062329,3.491627-.224385,6.980746-.85587,10.41536Z" transform="translate(-63.054001-157.884506)" fill="#fbbebe"/><path d="M565.66136,245.0461l-.0472.04719-.25486.25488-2.5299,2.52675-1.23976-5.20767-4.25109-17.854c.716316-.000872,1.430604.076144,2.13027.22969.030275-.20454.079788-.405765.14788-.601l.20135.68911l1.44118,4.90245l2.72811,9.30773.45,1.53241v.00315Z" transform="translate(-63.054001-157.884506)" fill="#470054"/><path d="M581.71523,188.0873c-.004281,3.338818-1.335502,6.539019-3.70049,8.89583-.424085.424736-.878657.817897-1.36008,1.17634-2.171387,1.636905-4.816409,2.522882-7.53567,2.52415h-15.09599c-6.945779-.010722-12.570765-5.644398-12.570765-12.590185s5.624986-12.579463,12.570765-12.590185h15.096c6.944453.01808,12.571432,5.639618,12.59623,12.58405Z" transform="translate(-63.054001-157.884506)" fill="#2f2e41"/><circle r="12.9012" transform="translate(532.815 18.2504)" fill="#2f2e41"/><path d="M595.55433,163.23377c-.15825,0-.31505.00628-.472.01193c6.936299.25217,12.42917,5.948364,12.42917,12.889245s-5.492871,12.637075-12.42917,12.889245c.15694.00565.31374.01193.472.01193c7.125122,0,12.901175-5.776053,12.901175-12.901175s-5.776053-12.901175-12.901175-12.901175Z" transform="translate(-63.054001-157.884506)" opacity="0.1"/><path d="M534.19508,163.23377c.15825,0,.31505.00628.472.01193-6.936299.25217-12.42917,5.948364-12.42917,12.889245s5.492871,12.637075,12.42917,12.889245c-.157.00565-.31375.01193-.472.01193-7.120687-.006269-12.889822-5.780485-12.889822-12.901175s5.769135-12.894906,12.889822-12.901175Z" transform="translate(-63.054001-157.884506)" opacity="0.1"/><path d="M576.65466,198.15947c-2.171387,1.636905-4.816409,2.522882-7.53567,2.52415h-15.09599c-2.719282-.001268-5.364326-.887245-7.53574-2.52415Z" transform="translate(-63.054001-157.884506)" opacity="0.1"/><path d="M674.13958,291.64042c0,0,3.25228,9.37161,6.229,6.87633L677.996,286.26693Z" transform="translate(-63.054001-157.884506)" fill="#fbbebe"/><path d="M1069.91781,577.43414c8.307016,3.019912,17.615399.463429,23.214683-6.375753s6.267956-16.469055,1.667635-24.016468-13.466046-11.365854-22.110718-9.523019l.52093,10.7122-5.06814-9.18045c-4.9741,2.337184-8.816806,6.553576-10.68367,11.72261-.662997,1.810644-1.066047,3.70611-1.19713,5.62986-.657347,9.273973,4.917122,17.858715,13.65641,21.03102Z" transform="translate(-63.054001-157.884506)" fill="#00818a"/><path d="M1094.99516,701.67756c-1.78906-9.11027,5.9633-17.1868,13.62086-22.43651s16.605-10.40779,19.21775-19.31684c3.755-12.80387-7.43-24.52981-16.13564-34.64176-6.458752-7.504216-12.005304-15.747509-16.52359-24.55738-1.81107-3.5325-3.47558-7.22528-3.95221-11.16626-.68641-5.67546,1.13693-11.32309,2.9739-16.73673q9.17925-27.05169,19.62843-53.65005" transform="translate(-63.054001-157.884506)" fill="none" stroke="#3f3d56" stroke-miterlimit="10"/><path d="M1070.77493,574.6762c8.307016,3.019912,17.615399.463429,23.214683-6.375753s6.267956-16.469055,1.667635-24.016468-13.466046-11.365854-22.110718-9.523019l.52093,10.7122-5.06815-9.18045c-4.974096,2.337186-8.816798,6.553578-10.68366,11.72261-.662997,1.810644-1.066047,3.70611-1.19713,5.62986-.65735,9.273974,4.917119,17.858718,13.65641,21.03102Z" transform="translate(-63.054001-157.884506)" fill="none" stroke="#3f3d56" stroke-miterlimit="10"/><path d="M1092.45136,515.47266c2.415906-6.665959,8.062693-11.6409,14.97993-13.19764l1.71361,10.18378l3.177-10.69566c9.051065.134224,16.977199,6.104038,19.605158,14.766233s-.645113,18.029653-8.09589,23.170249-17.370039,4.87507-24.535128-.656773-9.932325-15.060992-6.84471-23.570189Z" transform="translate(-63.054001-157.884506)" fill="#00818a"/><path d="M1093.59418,511.7954c2.41591-6.665954,8.062696-11.64089,14.97993-13.19763l1.71361,10.18378l3.177-10.69567c9.051065.134224,16.977199,6.104038,19.605158,14.766233s-.645113,18.029653-8.09589,23.170249-17.370039,4.87507-24.535128-.656773-9.932325-15.060992-6.84471-23.570189Z" transform="translate(-63.054001-157.884506)" fill="none" stroke="#3f3d56" stroke-miterlimit="10"/><path d="M1108.04474,625.48885c9.945647,3.607666,21.015232-.821167,25.727732-10.293416s1.567854-20.972746-7.308732-26.729254l-2.44121,8.21926-1.73105-10.30382c-.017114-.008076-.034835-.014796-.053-.0201-6.990691-2.540656-14.805868-1.157212-20.499584,3.628839s-8.400241,12.246993-7.099345,19.570404s6.411413,13.395771,13.405129,15.928087Z" transform="translate(-63.054001-157.884506)" fill="#00818a"/><path d="M1109.035,621.76417c9.945647,3.607666,21.015232-.821167,25.727732-10.293416s1.567854-20.972746-7.308732-26.729254l-2.44121,8.21926-1.73105-10.30382c-.017114-.008075-.034835-.014795-.053-.0201-6.990691-2.540656-14.805868-1.157212-20.499584,3.628839s-8.400241,12.246993-7.099345,19.570404s6.411413,13.395771,13.405129,15.928087Z" transform="translate(-63.054001-157.884506)" fill="none" stroke="#3f3d56" stroke-miterlimit="10"/><path d="M1086.37782,660.05148c1.702443,9.687178,9.957156,16.857999,19.787219,17.189042s18.548504-6.268183,20.898811-15.818878-2.309957-19.442253-11.171032-23.710867-19.500856-1.747493-25.504418,6.043333l9.27267,13.95654-12.66994-7.40768c-.982386,3.153459-1.192726,6.496793-.61331,9.74851Z" transform="translate(-63.054001-157.884506)" fill="#00818a"/><path d="M1087.23494,657.29354c1.702443,9.687178,9.957156,16.857999,19.787219,17.189042s18.548504-6.268183,20.898811-15.818878-2.309957-19.442253-11.171032-23.710867-19.500856-1.747493-25.504418,6.043333l9.27267,13.95655-12.66994-7.40769c-.982391,3.153458-1.192731,6.496793-.61331,9.74851Z" transform="translate(-63.054001-157.884506)" fill="none" stroke="#3f3d56" stroke-miterlimit="10"/><path d="M72.06146,628.13325c5.45787,1.984183,11.573684.304548,15.252542-4.188927s4.118193-10.820509,1.095677-15.779312-8.847496-7.467577-14.527219-6.256761l.34227,7.03811-3.32987-6.03172c-3.268077,1.535582-5.792803,4.30584-7.01936,7.702-.435602,1.189629-.700415,2.434988-.78654,3.69893-.431853,6.093137,3.230663,11.733424,8.9725,13.81768Z" transform="translate(-63.054001-157.884506)" fill="#00818a"/><path d="M88.53774,709.76344c-1.17545-5.98561,3.918-11.292,8.94915-14.7412s10.90978-6.8381,12.62642-12.69151c2.46711-8.41238-4.88167-16.11653-10.60142-22.76027-4.243517-4.930407-7.887699-10.346402-10.85629-16.13465-1.29061-2.273585-2.169662-4.757183-2.59668-7.33643-.451-3.72888.747-7.43947,1.95391-10.99634q6.03093-17.77346,12.89623-35.24906" transform="translate(-63.054001-157.884506)" fill="none" stroke="#3f3d56" stroke-miterlimit="10"/><path d="M72.62461,626.32123c5.457863,1.984165,11.573659.304524,15.252506-4.188945s4.118179-10.820486,1.095675-15.779281-8.847468-7.467573-14.527181-6.256774l.34227,7.03812-3.32988-6.03177c-3.268078,1.535581-5.792804,4.30584-7.01936,7.702-.435597,1.189627-.70041,2.434982-.78654,3.69892-.431881,6.093159,3.230646,11.733478,8.97251,13.81773Z" transform="translate(-63.054001-157.884506)" fill="none" stroke="#3f3d56" stroke-miterlimit="10"/><path d="M86.86641,587.42343c1.587295-4.379657,5.297338-7.648284,9.84209-8.67109l1.12587,6.69093l2.08737-7.02725c5.946697.088197,11.154291,4.010468,12.880899,9.701673s-.423855,11.845776-5.319137,15.223232-11.412397,3.203006-16.119982-.431501-6.525712-9.895309-4.49711-15.485994Z" transform="translate(-63.054001-157.884506)" fill="#00818a"/><path d="M87.61727,585.0074c1.587297-4.379653,5.29734-7.648276,9.84209-8.67108l1.12587,6.69093L100.6726,576c5.946698.088199,11.154291,4.010472,12.880897,9.701678s-.423861,11.845777-5.319144,15.223231-11.412401,3.203-16.119984-.43151-6.525706-9.895315-4.497099-15.485999Z" transform="translate(-63.054001-157.884506)" fill="none" stroke="#3f3d56" stroke-miterlimit="10"/><path d="M97.11155,659.70607c6.534478,2.370331,13.807422-.539485,16.903632-6.762937s1.030108-13.779507-4.801992-17.561633l-1.60392,5.4002-1.13733-6.76979c-.011238-.005302-.022873-.009715-.0348-.0132-4.59326-1.670285-9.728771-.761833-13.470284,2.382841s-5.519988,8.047305-4.664886,12.859445s4.213732,8.801922,8.80958,10.465074Z" transform="translate(-63.054001-157.884506)" fill="#00818a"/><path d="M97.76214,657.25889c6.534478,2.370331,13.807422-.539485,16.903632-6.762937s1.030108-13.779507-4.801992-17.561633l-1.60392,5.4002-1.13733-6.7698c-.011238-.005302-.022873-.009715-.0348-.0132-4.592179-1.665856-9.724252-.755272-13.463015,2.388743s-5.516211,8.043813-4.662795,12.853686s4.208041,8.799085,8.80022,10.464941Z" transform="translate(-63.054001-157.884506)" fill="none" stroke="#3f3d56" stroke-miterlimit="10"/><path d="M82.876,682.41435c1.118548,6.364651,6.542056,11.076001,13.000587,11.293489s12.186698-4.118336,13.730879-10.393321-1.517712-12.773912-7.339607-15.578457-12.812421-1.148105-16.756859,3.970619l6.09231,9.16971-8.32438-4.867c-.645438,2.071886-.783627,4.268521-.40293,6.40496Z" transform="translate(-63.054001-157.884506)" fill="#00818a"/><path d="M83.43913,680.60233c1.118548,6.364651,6.542056,11.076001,13.000587,11.293489s12.186698-4.118336,13.730879-10.393321-1.517712-12.773912-7.339607-15.578457-12.812421-1.148105-16.756859,3.970619l6.09231,9.16971-8.32439-4.867c-.645435,2.071887-.78362,4.268522-.40292,6.40496Z" transform="translate(-63.054001-157.884506)" fill="none" stroke="#3f3d56" stroke-miterlimit="10"/><ellipse rx="17" ry="22" transform="translate(480.946 319.116)" fill="#2f2e41"/><ellipse rx="17" ry="22" transform="translate(573.446 319.616)" fill="#2f2e41"/><path d="M623.5,542.5c0,9.94-13.88,18-31,18s-31-8.06-31-18c0-8.61,10.41-15.81,24.32-17.57c2.214592-.292081,4.446238-.435734,6.68-.43c3.742922-.012075,7.475671.390378,11.13,1.2c11.62,2.59,19.87,9.14,19.87,16.8Z" transform="translate(-63.054001-157.884506)" fill="#2f2e41"/><ellipse rx="17" ry="22" transform="translate(484.946 314.116)" fill="none" stroke="#3f3d56" stroke-miterlimit="10"/><ellipse rx="17" ry="22" transform="translate(577.446 314.616)" fill="none" stroke="#3f3d56" stroke-miterlimit="10"/><ellipse rx="31" ry="18" transform="translate(533.446 379.616)" fill="none" stroke="#3f3d56" stroke-miterlimit="10"/><path d="M604,527.2c.008102,1.257524-.46402,2.470734-1.32,3.392-.817299.892215-1.970043,1.402612-3.18,1.408h-10c-2.565198-.089298-4.576212-2.23438-4.5-4.8-.005219-.974972.280266-1.929376.82-2.74134c2.212938-.311434,4.445263-.46471,6.68-.45866c3.747418-.012343,7.483217.41729,11.13,1.28.246832.609904.372505,1.262047.37,1.92Z" transform="translate(-63.054001-157.884506)" fill="#fff"/><circle r="5" transform="translate(484.946 308.116)" fill="#fff"/><circle r="5" transform="translate(577.946 308.116)" fill="#fff"/><circle r="5" transform="translate(582.946 355.116)" opacity="0.3" fill="#2cb1bc"/><circle r="5" transform="translate(460.946 355.116)" opacity="0.3" fill="#2cb1bc"/></svg>
